<mxfile host="app.diagrams.net" modified="2023-11-15T04:19:12.457Z" agent="Mozilla/5.0 (X11; Linux x86_64) AppleWebKit/537.36 (KHTML, like Gecko) Chrome/119.0.0.0 Safari/537.36" version="22.1.1" etag="wEooS4NLqtlDoBkqEehn" type="github">
  <diagram name="Page-1" id="wcizlnCcUbV-gU-KcKiG">
    <mxGraphModel>
      <root>
        <mxCell id="0" />
        <mxCell id="1" parent="0" />
      </root>
    </mxGraphModel>
  </diagram>
</mxfile>
